<svg width="1200" height="675" viewBox="0 0 1200 675" xmlns="http://www.w3.org/2000/svg">
  <defs>
    <linearGradient id="bg" x1="0%" y1="0%" x2="100%" y2="100%">
      <stop offset="0%"   stop-color="#060012"/>
      <stop offset="55%"  stop-color="#08001a"/>
      <stop offset="100%" stop-color="#000a10"/>
    </linearGradient>
    <linearGradient id="ogGrad" x1="0%" y1="0%" x2="100%" y2="0%">
      <stop offset="0%"   stop-color="#FF4500"/>
      <stop offset="100%" stop-color="#FFAA00"/>
    </linearGradient>
    <linearGradient id="cyGrad" x1="0%" y1="0%" x2="100%" y2="0%">
      <stop offset="0%"   stop-color="#00BFFF"/>
      <stop offset="100%" stop-color="#00FFE5"/>
    </linearGradient>
    <linearGradient id="brandGrad" x1="0%" y1="0%" x2="100%" y2="0%">
      <stop offset="0%"   stop-color="#FF6B00"/>
      <stop offset="45%"  stop-color="#A855F7"/>
      <stop offset="100%" stop-color="#00E5FF"/>
    </linearGradient>
    <linearGradient id="hotBadge" x1="0%" y1="0%" x2="100%" y2="100%">
      <stop offset="0%"   stop-color="#FF2D00"/>
      <stop offset="100%" stop-color="#FF8C00"/>
    </linearGradient>
    <linearGradient id="cardA" x1="0%" y1="0%" x2="100%" y2="100%">
      <stop offset="0%"   stop-color="#0d0025"/>
      <stop offset="100%" stop-color="#060014"/>
    </linearGradient>
    <linearGradient id="cardB" x1="0%" y1="0%" x2="100%" y2="100%">
      <stop offset="0%"   stop-color="#001520"/>
      <stop offset="100%" stop-color="#000a18"/>
    </linearGradient>
    <linearGradient id="thumbGrad1" x1="0%" y1="0%" x2="100%" y2="100%">
      <stop offset="0%"   stop-color="#1a0040"/>
      <stop offset="100%" stop-color="#000a20"/>
    </linearGradient>
    <linearGradient id="thumbGrad2" x1="0%" y1="0%" x2="100%" y2="100%">
      <stop offset="0%"   stop-color="#001a10"/>
      <stop offset="100%" stop-color="#000820"/>
    </linearGradient>
    <linearGradient id="thumbGrad3" x1="0%" y1="0%" x2="100%" y2="100%">
      <stop offset="0%"   stop-color="#1a0800"/>
      <stop offset="100%" stop-color="#0a0015"/>
    </linearGradient>

    <filter id="glow" x="-30%" y="-30%" width="160%" height="160%">
      <feGaussianBlur stdDeviation="5" result="b"/>
      <feMerge><feMergeNode in="b"/><feMergeNode in="SourceGraphic"/></feMerge>
    </filter>
    <filter id="softGlow" x="-60%" y="-60%" width="220%" height="220%">
      <feGaussianBlur stdDeviation="22" result="b"/>
      <feMerge><feMergeNode in="b"/><feMergeNode in="SourceGraphic"/></feMerge>
    </filter>
    <filter id="ogGlow" x="-30%" y="-60%" width="160%" height="220%">
      <feGaussianBlur stdDeviation="10" result="b"/>
      <feMerge><feMergeNode in="b"/><feMergeNode in="SourceGraphic"/></feMerge>
    </filter>
    <filter id="hotGlow" x="-40%" y="-60%" width="180%" height="220%">
      <feGaussianBlur stdDeviation="12" result="b"/>
      <feMerge><feMergeNode in="b"/><feMergeNode in="SourceGraphic"/></feMerge>
    </filter>
  </defs>

  <!-- Background -->
  <rect width="1200" height="675" fill="url(#bg)"/>
  <pattern id="dots" x="0" y="0" width="26" height="26" patternUnits="userSpaceOnUse">
    <circle cx="13" cy="13" r="0.9" fill="#1E0A50" opacity="0.5"/>
  </pattern>
  <rect width="1200" height="675" fill="url(#dots)"/>

  <!-- Faint matrix bg text -->
  <g font-family="'Courier New',monospace" font-size="8" fill="#00FF41" opacity="0.065">
    <text x="12"  y="45">$ generate thumbnail --style viral</text>
    <text x="12"  y="75">AI副業収入: +¥38,000/月</text>
    <text x="12"  y="105">processing... 97% complete</text>
    <text x="12"  y="580">output: thumbnail_v3_final.png</text>
    <text x="12"  y="610">$ upload --platform youtube</text>
    <text x="12"  y="640">✓ 3 thumbnails completed today</text>
    <text x="920" y="600">$ ai-design --batch 5</text>
    <text x="920" y="630">render complete: 00:03:12</text>
    <text x="920" y="658">earning_per_hour: ¥4,200</text>
  </g>

  <!-- Glow blobs -->
  <ellipse cx="160"  cy="340" rx="260" ry="180" fill="#FF4500" opacity="0.06" filter="url(#softGlow)"/>
  <ellipse cx="1040" cy="330" rx="260" ry="180" fill="#00BFFF" opacity="0.06" filter="url(#softGlow)"/>
  <ellipse cx="600"  cy="680" rx="420" ry="160" fill="#7C3AED" opacity="0.05"/>

  <!-- ═══════════════════════════════════
       TOP HEADER AREA
  ═══════════════════════════════════ -->

  <!-- HOT badge -->
  <rect x="48" y="48" width="100" height="38" rx="19" fill="url(#hotBadge)" filter="url(#hotGlow)"/>
  <text x="98" y="73"
        font-family="IPAGothic, Arial, sans-serif"
        font-size="17" font-weight="900" fill="#FFFFFF"
        text-anchor="middle" letter-spacing="1">🔥 HOT</text>

  <!-- Main headline -->
  <text x="168" y="76"
        font-family="IPAGothic, Arial, sans-serif"
        font-size="34" font-weight="900" letter-spacing="1"
        fill="#FFFFFF" filter="url(#glow)">AI 副業が</text>
  <text x="390" y="76"
        font-family="IPAGothic, Arial, sans-serif"
        font-size="34" font-weight="900" letter-spacing="1"
        fill="url(#ogGrad)" filter="url(#ogGlow)">アツい</text>
  <text x="500" y="76"
        font-family="IPAGothic, Arial, sans-serif"
        font-size="34" font-weight="900" letter-spacing="1"
        fill="#FFFFFF">！</text>

  <!-- Sub headline -->
  <text x="168" y="108"
        font-family="IPAGothic, Arial, sans-serif"
        font-size="16" fill="#94A3B8" letter-spacing="1">特に「サムネイル制作」がスキマ時間副業に最適</text>

  <!-- Divider -->
  <rect x="48" y="120" width="1104" height="2" fill="url(#brandGrad)" opacity="0.5" rx="1"/>

  <!-- ═══════════════════════════════════
       LEFT: Thumbnail mockup showcase
  ═══════════════════════════════════ -->

  <!-- Section label -->
  <text x="48" y="158"
        font-family="IPAGothic, Arial, sans-serif"
        font-size="12" fill="#6B7280" letter-spacing="2">AI が生成したサムネイル（イメージ）</text>

  <!-- Thumbnail card 1 -->
  <rect x="48" y="168" width="320" height="180" rx="8" fill="url(#thumbGrad1)" stroke="#3B1F8C" stroke-width="1.5"/>
  <!-- thumb 1 design elements -->
  <rect x="48" y="168" width="320" height="180" rx="8" fill="#9333EA" opacity="0.06"/>
  <circle cx="95" cy="230" r="35" fill="#4C1D95" opacity="0.5"/>
  <circle cx="95" cy="230" r="22" fill="#7C3AED" opacity="0.4"/>
  <rect x="140" y="195" width="210" height="8" rx="4" fill="#9333EA" opacity="0.7"/>
  <rect x="140" y="212" width="170" height="6" rx="3" fill="#7C3AED" opacity="0.5"/>
  <rect x="140" y="226" width="190" height="6" rx="3" fill="#6D28D9" opacity="0.4"/>
  <rect x="140" y="248" width="80"  height="22" rx="11" fill="#FF6B00" opacity="0.8"/>
  <text x="180" y="263"
        font-family="IPAGothic, Arial, sans-serif"
        font-size="10" fill="#FFFFFF" text-anchor="middle" font-weight="700">VIEW MORE</text>
  <!-- thumb 1 label -->
  <rect x="48" y="316" width="80" height="20" rx="4" fill="#4C1D95" opacity="0.8"/>
  <text x="88" y="330"
        font-family="'Courier New',monospace"
        font-size="10" fill="#A78BFA" text-anchor="middle">Tech系</text>

  <!-- Thumbnail card 2 -->
  <rect x="384" y="168" width="320" height="180" rx="8" fill="url(#thumbGrad2)" stroke="#0C4A6E" stroke-width="1.5"/>
  <rect x="384" y="168" width="320" height="180" rx="8" fill="#0099FF" opacity="0.05"/>
  <!-- thumb 2 design -->
  <rect x="384" y="168" width="320" height="70" rx="8" fill="#001830" opacity="0.6"/>
  <rect x="384" y="220" width="320" height="18" fill="#001830" opacity="0.3"/>
  <text x="544" y="210"
        font-family="IPAGothic, Arial, sans-serif"
        font-size="18" font-weight="900" fill="#00E5FF"
        text-anchor="middle" filter="url(#glow)">知らないと損！</text>
  <rect x="400" y="250" width="288" height="7" rx="3" fill="#00BFFF" opacity="0.4"/>
  <rect x="400" y="264" width="200" height="6" rx="3" fill="#0099FF" opacity="0.3"/>
  <circle cx="650" cy="308" r="24" fill="#00BFFF" opacity="0.15" stroke="#00E5FF" stroke-width="1"/>
  <text x="650" y="314" font-family="IPAGothic, Arial, sans-serif"
        font-size="14" fill="#00E5FF" text-anchor="middle">▶</text>
  <!-- thumb 2 label -->
  <rect x="384" y="316" width="80" height="20" rx="4" fill="#0C4A6E" opacity="0.8"/>
  <text x="424" y="330"
        font-family="'Courier New',monospace"
        font-size="10" fill="#67E8F9" text-anchor="middle">解説系</text>

  <!-- Thumbnail card 3 -->
  <rect x="720" y="168" width="320" height="180" rx="8" fill="url(#thumbGrad3)" stroke="#7C2D12" stroke-width="1.5"/>
  <rect x="720" y="168" width="320" height="180" rx="8" fill="#FF4500" opacity="0.05"/>
  <!-- thumb 3 design -->
  <text x="730" y="225"
        font-family="IPAGothic, Arial, sans-serif"
        font-size="42" font-weight="900" fill="#FF6B00" opacity="0.15">副業</text>
  <rect x="730" y="195" width="290" height="7" rx="3" fill="#FF6B00" opacity="0.6"/>
  <rect x="730" y="210" width="230" height="6" rx="3" fill="#FF4500" opacity="0.4"/>
  <rect x="730" y="240" width="90"  height="26" rx="13" fill="url(#ogGrad)" opacity="0.9"/>
  <text x="775" y="257"
        font-family="IPAGothic, Arial, sans-serif"
        font-size="11" fill="#1a0800" text-anchor="middle" font-weight="900">実績公開</text>
  <rect x="730" y="278" width="260" height="6" rx="3" fill="#FF8C00" opacity="0.3"/>
  <rect x="730" y="292" width="180" height="5" rx="2" fill="#FFAA00" opacity="0.2"/>
  <!-- thumb 3 label -->
  <rect x="720" y="316" width="80" height="20" rx="4" fill="#7C2D12" opacity="0.8"/>
  <text x="760" y="330"
        font-family="'Courier New',monospace"
        font-size="10" fill="#FCA86A" text-anchor="middle">副業系</text>

  <!-- AI generation indicator -->
  <text x="48" y="360"
        font-family="'Courier New',monospace"
        font-size="11" fill="#4B5563">✓ generated by AI  ·  所要時間: 約 15 分  ·  修正: 2回</text>

  <!-- ═══════════════════════════════════
       BOTTOM: 3 point cards
  ═══════════════════════════════════ -->

  <rect x="48" y="385" width="1" height="220" fill="none"/>

  <!-- Card 1: スキマ時間 -->
  <rect x="48" y="390" width="348" height="220" rx="10" fill="url(#cardA)" stroke="#3B1F8C" stroke-width="1.2"/>
  <!-- accent top bar -->
  <rect x="48" y="390" width="348" height="4" rx="2" fill="url(#ogGrad)"/>

  <text x="72" y="430"
        font-family="IPAGothic, Arial, sans-serif"
        font-size="28">⏱</text>
  <text x="112" y="428"
        font-family="IPAGothic, Arial, sans-serif"
        font-size="18" font-weight="700" fill="#FFFFFF">スキマ時間でOK</text>

  <rect x="72" y="440" width="300" height="1" fill="#2D1060" opacity="0.8"/>

  <text x="72" y="465"
        font-family="IPAGothic, Arial, sans-serif"
        font-size="13.5" fill="#E2E8F0">1件あたり</text>
  <text x="168" y="465"
        font-family="IPAGothic, Arial, sans-serif"
        font-size="13.5" fill="url(#ogGrad)" font-weight="700"> 10〜30分</text>
  <text x="72" y="488"
        font-family="IPAGothic, Arial, sans-serif"
        font-size="13.5" fill="#94A3B8">本業の休憩中・通勤中・夜の</text>
  <text x="72" y="508"
        font-family="IPAGothic, Arial, sans-serif"
        font-size="13.5" fill="#94A3B8">ちょっとした時間で完結</text>
  <text x="72" y="535"
        font-family="IPAGothic, Arial, sans-serif"
        font-size="13" fill="#6B7280">→ SEの本業と完全に両立できる</text>

  <!-- progress bar -->
  <rect x="72" y="560" width="300" height="8" rx="4" fill="#1a0a30"/>
  <rect x="72" y="560" width="210" height="8" rx="4" fill="url(#ogGrad)" opacity="0.85"/>
  <text x="72"  y="585" font-family="IPAGothic, Arial, sans-serif" font-size="10" fill="#6B7280">作業時間</text>
  <text x="286" y="585" font-family="IPAGothic, Arial, sans-serif" font-size="10" fill="#FF8C00">70%がAI自動</text>

  <!-- Card 2: 複数こなせる -->
  <rect x="426" y="390" width="348" height="220" rx="10" fill="url(#cardA)" stroke="#0C4A6E" stroke-width="1.2"/>
  <rect x="426" y="390" width="348" height="4" rx="2" fill="url(#cyGrad)"/>

  <text x="450" y="430"
        font-family="IPAGothic, Arial, sans-serif"
        font-size="28">📈</text>
  <text x="492" y="428"
        font-family="IPAGothic, Arial, sans-serif"
        font-size="18" font-weight="700" fill="#FFFFFF">慣れたら複数こなせる</text>

  <rect x="450" y="440" width="300" height="1" fill="#0C4A6E" opacity="0.8"/>

  <text x="450" y="465"
        font-family="IPAGothic, Arial, sans-serif"
        font-size="13.5" fill="#E2E8F0">慣れてくると</text>
  <text x="560" y="465"
        font-family="IPAGothic, Arial, sans-serif"
        font-size="13.5" fill="url(#cyGrad)" font-weight="700"> 1日3〜5件</text>
  <text x="450" y="488"
        font-family="IPAGothic, Arial, sans-serif"
        font-size="13.5" fill="#94A3B8">AI がテンプレを学習するので</text>
  <text x="450" y="508"
        font-family="IPAGothic, Arial, sans-serif"
        font-size="13.5" fill="#94A3B8">2件目以降は時間が半分に</text>
  <text x="450" y="535"
        font-family="IPAGothic, Arial, sans-serif"
        font-size="13" fill="#6B7280">→ スピードと品質が同時に上がる</text>

  <!-- bar chart mini -->
  <rect x="450" y="560" width="28" height="28" rx="3" fill="#0C4A6E" opacity="0.6"/>
  <rect x="484" y="548" width="28" height="40" rx="3" fill="#0099FF" opacity="0.7"/>
  <rect x="518" y="540" width="28" height="48" rx="3" fill="#00BFFF" opacity="0.8"/>
  <rect x="552" y="530" width="28" height="58" rx="3" fill="#00E5FF" opacity="0.9"/>
  <rect x="586" y="520" width="28" height="68" rx="3" fill="url(#cyGrad)"/>
  <text x="450" y="600" font-family="IPAGothic, Arial, sans-serif" font-size="10" fill="#6B7280">件数/日（習熟度別）</text>

  <!-- Card 3: 初期コストゼロ -->
  <rect x="804" y="390" width="348" height="220" rx="10" fill="url(#cardA)" stroke="#1E3A5F" stroke-width="1.2"/>
  <rect x="804" y="390" width="348" height="4" rx="2" fill="url(#brandGrad)"/>

  <text x="828" y="430"
        font-family="IPAGothic, Arial, sans-serif"
        font-size="28">💡</text>
  <text x="868" y="428"
        font-family="IPAGothic, Arial, sans-serif"
        font-size="18" font-weight="700" fill="#FFFFFF">センス不要・即始められる</text>

  <rect x="828" y="440" width="300" height="1" fill="#1E3A5F" opacity="0.8"/>

  <circle cx="838" cy="466" r="3.5" fill="#A855F7"/>
  <text x="850" y="470"
        font-family="IPAGothic, Arial, sans-serif"
        font-size="13.5" fill="#E2E8F0">初期投資ほぼゼロ</text>

  <circle cx="838" cy="492" r="3.5" fill="#A855F7"/>
  <text x="850" y="496"
        font-family="IPAGothic, Arial, sans-serif"
        font-size="13.5" fill="#E2E8F0">デザインセンス不要</text>

  <circle cx="838" cy="518" r="3.5" fill="#A855F7"/>
  <text x="850" y="522"
        font-family="IPAGothic, Arial, sans-serif"
        font-size="13.5" fill="#E2E8F0">プロンプトだけで完結</text>

  <circle cx="838" cy="544" r="3.5" fill="#A855F7"/>
  <text x="850" y="548"
        font-family="IPAGothic, Arial, sans-serif"
        font-size="13.5" fill="#94A3B8">需要は普通にある</text>

  <text x="828" y="585"
        font-family="IPAGothic, Arial, sans-serif"
        font-size="13" fill="#6B7280">→ おじさん SE でも今日から始められた</text>

  <!-- ═══════════════════════════════════
       FOOTER
  ═══════════════════════════════════ -->
  <text x="48" y="648"
        font-family="'Courier New',monospace"
        font-size="11" fill="#4B5563">#AI副業  #生成AI  #サムネイル制作  #副業  #AI活用  #毎日投稿  #業務効率化</text>

  <text x="1060" y="648"
        font-family="IPAGothic, Arial, sans-serif"
        font-size="12" fill="#6B7280">@ojisan_se_ai</text>

  <!-- Mini logo -->
  <g transform="translate(1160, 635)">
    <circle cx="0" cy="0" r="22" fill="#06000e" stroke="url(#brandGrad)" stroke-width="1.8"/>
    <text x="-10" y="6" font-family="Arial,sans-serif" font-size="12" font-weight="900" fill="#FF8C00">A</text>
    <text x="2"   y="6" font-family="Arial,sans-serif" font-size="12" font-weight="900" fill="#00E5FF">I</text>
  </g>

  <!-- Bottom bar -->
  <rect x="0" y="669" width="1200" height="6" fill="url(#brandGrad)" opacity="0.85" rx="3"/>
</svg>
